<svg width="3691" height="3691" viewBox="0 0 3691 3691" fill="none" xmlns="http://www.w3.org/2000/svg">
<g clip-path="url(#clip0_3003_195)">
<path d="M3691 0H0V3691H3691V0Z" fill="black"/>
<path d="M1080.4 2555.18V1591.27C1080.4 1410.42 1004.37 1238.67 872.419 1121.42L735.891 1000.11C720.844 986.745 697.064 997.416 697.053 1017.54L696.142 2747.88C696.07 2884.26 801.996 2994.86 932.688 2994.86H2056.95C2093.66 2994.86 2116 2954.43 2096.47 2923.36L2029.47 2816.73C1942.04 2677.57 1793.3 2593.74 1633.84 2593.74H1117.36C1096.95 2593.74 1080.4 2576.48 1080.4 2555.18Z" fill="white"/>
<path d="M2212.91 696.142C2644.77 696.142 2994.86 1061.61 2994.86 1512.44C2994.86 1841.12 2808.77 2124.41 2540.57 2253.8C2532.21 2257.85 2529.13 2268.73 2534.26 2276.72L2964.06 2946.84C2977.21 2967.34 2963.13 2994.86 2939.49 2994.86H2757.19C2641.4 2994.86 2534.33 2933.63 2474.83 2834.3C2403.74 2715.62 2303.69 2550.46 2212.91 2407.27C2066.62 2176.52 1975.65 2094.19 1756.83 1974.16C1735.47 1962.44 1743.51 1929.42 1767.87 1929.36L2212.91 1928.29C2432.91 1928.29 2611.26 1742.1 2611.26 1512.44C2611.26 1282.77 2432.91 1096.59 2212.91 1096.59H1522.36C1400.45 1096.59 1292.86 1024.59 1211.67 933.656C1191.78 911.381 1170.57 890.196 1148.11 870.237L998.066 736.925C982.022 722.67 992.103 696.142 1013.57 696.142H2212.91Z" fill="white"/>
</g>
<defs>
<clipPath id="clip0_3003_195">
<rect width="3691" height="3691" fill="white"/>
</clipPath>
</defs>
</svg>
